<svg width="89" height="78" viewBox="0 0 89 78" fill="none" xmlns="http://www.w3.org/2000/svg">
<path d="M53.3166 34.6919H48.9083V30.2835C48.9083 29.1144 48.4439 27.9931 47.6171 27.1664C46.7904 26.3396 45.6691 25.8752 44.5 25.8752C43.3308 25.8752 42.2095 26.3396 41.3828 27.1664C40.5561 27.9931 40.0916 29.1144 40.0916 30.2835V34.6919H35.6833C34.5141 34.6919 33.3929 35.1563 32.5661 35.983C31.7394 36.8098 31.275 37.931 31.275 39.1002C31.275 40.2694 31.7394 41.3906 32.5661 42.2174C33.3929 43.0441 34.5141 43.5085 35.6833 43.5085H40.0916V47.9169C40.0916 49.086 40.5561 50.2073 41.3828 51.034C42.2095 51.8607 43.3308 52.3252 44.5 52.3252C45.6691 52.3252 46.7904 51.8607 47.6171 51.034C48.4439 50.2073 48.9083 49.086 48.9083 47.9169V43.5085H53.3166C54.4858 43.5085 55.6071 43.0441 56.4338 42.2174C57.2605 41.3906 57.725 40.2694 57.725 39.1002C57.725 37.931 57.2605 36.8098 56.4338 35.983C55.6071 35.1563 54.4858 34.6919 53.3166 34.6919ZM80.472 8.24187C75.7714 3.58977 69.5628 0.770937 62.9666 0.294004C56.3704 -0.182928 49.8209 1.71345 44.5 5.64095C38.8911 1.46907 31.9097 -0.422661 24.9619 0.346708C18.014 1.11608 11.6158 4.4894 7.05548 9.78736C2.4952 15.0853 0.111686 21.9144 0.384909 28.8994C0.658133 35.8844 3.5678 42.5064 8.52798 47.4319L34.978 74.1024C37.4577 76.579 40.819 77.9701 44.3236 77.9701C47.8283 77.9701 51.1896 76.579 53.6693 74.1024L80.1193 47.4319C82.7243 44.8868 84.8007 41.8519 86.229 38.5017C87.6574 35.1515 88.4095 31.552 88.4423 27.9102C88.4751 24.2684 87.7878 20.656 86.42 17.2806C85.0522 13.9053 83.0308 10.8335 80.472 8.24187ZM74.2562 41.128L47.8062 67.578C47.3964 67.9912 46.9089 68.3192 46.3717 68.543C45.8345 68.7668 45.2583 68.882 44.6763 68.882C44.0944 68.882 43.5182 68.7668 42.981 68.543C42.4438 68.3192 41.9562 67.9912 41.5464 67.578L15.0964 41.128C11.6392 37.5941 9.70328 32.8468 9.70328 27.903C9.70328 22.9592 11.6392 18.212 15.0964 14.678C18.6193 11.1998 23.3707 9.24947 28.3214 9.24947C33.2721 9.24947 38.0234 11.1998 41.5464 14.678C41.9562 15.0912 42.4438 15.4192 42.981 15.643C43.5182 15.8668 44.0944 15.982 44.6763 15.982C45.2583 15.982 45.8345 15.8668 46.3717 15.643C46.9089 15.4192 47.3964 15.0912 47.8062 14.678C51.3292 11.1998 56.0806 9.24947 61.0312 9.24947C65.9819 9.24947 70.7333 11.1998 74.2562 14.678C77.74 18.2159 79.6926 22.9819 79.6926 27.9471C79.6926 32.9123 77.74 37.6783 74.2562 41.2162V41.128Z" fill="#FDD3CF"/>
</svg>
