<svg width="93" height="93" viewBox="0 0 93 93" fill="none" xmlns="http://www.w3.org/2000/svg">
<path d="M48.9042 66.5375H44.4958C43.3267 66.5375 42.2054 67.0019 41.3787 67.8286C40.552 68.6554 40.0875 69.7766 40.0875 70.9458C40.0875 72.115 40.552 73.2363 41.3787 74.063C42.2054 74.8897 43.3267 75.3541 44.4958 75.3541H48.9042C50.0733 75.3541 51.1946 74.8897 52.0213 74.063C52.8481 73.2363 53.3125 72.115 53.3125 70.9458C53.3125 69.7766 52.8481 68.6554 52.0213 67.8286C51.1946 67.0019 50.0733 66.5375 48.9042 66.5375ZM48.9042 48.9041H44.4958C43.3267 48.9041 42.2054 49.3686 41.3787 50.1953C40.552 51.022 40.0875 52.1433 40.0875 53.3125C40.0875 54.4816 40.552 55.6029 41.3787 56.4296C42.2054 57.2564 43.3267 57.7208 44.4958 57.7208H48.9042C50.0733 57.7208 51.1946 57.2564 52.0213 56.4296C52.8481 55.6029 53.3125 54.4816 53.3125 53.3125C53.3125 52.1433 52.8481 51.022 52.0213 50.1953C51.1946 49.3686 50.0733 48.9041 48.9042 48.9041ZM26.8625 66.5375H22.4542C21.285 66.5375 20.1637 67.0019 19.337 67.8286C18.5103 68.6554 18.0458 69.7766 18.0458 70.9458C18.0458 72.115 18.5103 73.2363 19.337 74.063C20.1637 74.8897 21.285 75.3541 22.4542 75.3541H26.8625C28.0317 75.3541 29.1529 74.8897 29.9797 74.063C30.8064 73.2363 31.2708 72.115 31.2708 70.9458C31.2708 69.7766 30.8064 68.6554 29.9797 67.8286C29.1529 67.0019 28.0317 66.5375 26.8625 66.5375ZM26.8625 48.9041H22.4542C21.285 48.9041 20.1637 49.3686 19.337 50.1953C18.5103 51.022 18.0458 52.1433 18.0458 53.3125C18.0458 54.4816 18.5103 55.6029 19.337 56.4296C20.1637 57.2564 21.285 57.7208 22.4542 57.7208H26.8625C28.0317 57.7208 29.1529 57.2564 29.9797 56.4296C30.8064 55.6029 31.2708 54.4816 31.2708 53.3125C31.2708 52.1433 30.8064 51.022 29.9797 50.1953C29.1529 49.3686 28.0317 48.9041 26.8625 48.9041ZM88.5792 22.4541H75.3542V4.82081C75.3543 4.24186 75.2404 3.66855 75.0189 3.13364C74.7974 2.59872 74.4727 2.11269 74.0633 1.70331C73.654 1.29393 73.1679 0.96922 72.633 0.747733C72.0981 0.526247 71.5248 0.412325 70.9458 0.412476H22.4542C21.8752 0.412325 21.3019 0.526247 20.767 0.747733C20.2321 0.96922 19.7461 1.29393 19.3367 1.70331C18.9273 2.11269 18.6026 2.59872 18.3811 3.13364C18.1596 3.66855 18.0457 4.24186 18.0458 4.82081V22.4541H4.82084C4.24189 22.454 3.66858 22.5679 3.13367 22.7894C2.59875 23.0109 2.11272 23.3356 1.70334 23.745C1.29396 24.1544 0.96925 24.6404 0.747764 25.1753C0.526278 25.7102 0.412356 26.2835 0.412506 26.8625V88.5791C0.412356 89.1581 0.526278 89.7314 0.747764 90.2663C0.96925 90.8012 1.29396 91.2873 1.70334 91.6966C2.11272 92.106 2.59875 92.4307 3.13367 92.6522C3.66858 92.8737 4.24189 92.9876 4.82084 92.9875H88.5792C89.1581 92.9876 89.7314 92.8737 90.2663 92.6522C90.8013 92.4307 91.2873 92.106 91.6967 91.6966C92.1061 91.2873 92.4308 90.8012 92.6522 90.2663C92.8737 89.7314 92.9877 89.1581 92.9875 88.5791V26.8625C92.9877 26.2835 92.8737 25.7102 92.6522 25.1753C92.4308 24.6404 92.1061 24.1544 91.6967 23.745C91.2873 23.3356 90.8013 23.0109 90.2663 22.7894C89.7314 22.5679 89.1581 22.454 88.5792 22.4541ZM84.1708 84.1708H9.22917V31.2708H22.4542C23.0331 31.271 23.6064 31.157 24.1413 30.9356C24.6763 30.7141 25.1623 30.3894 25.5717 29.98C25.9811 29.5706 26.3058 29.0846 26.5272 28.5497C26.7487 28.0147 26.8627 27.4414 26.8625 26.8625V9.22914H66.5375V26.8625C66.5374 27.4414 66.6513 28.0147 66.8728 28.5497C67.0943 29.0846 67.419 29.5706 67.8283 29.98C68.2377 30.3894 68.7237 30.7141 69.2587 30.9356C69.7936 31.157 70.3669 31.271 70.9458 31.2708H84.1708V84.1708ZM66.5375 48.9041C65.3683 48.9041 64.2471 49.3686 63.4203 50.1953C62.5936 51.022 62.1292 52.1433 62.1292 53.3125C62.1292 54.4816 62.5936 55.6029 63.4203 56.4296C64.2471 57.2564 65.3683 57.7208 66.5375 57.7208H70.9458C72.115 57.7208 73.2363 57.2564 74.063 56.4296C74.8897 55.6029 75.3542 54.4816 75.3542 53.3125C75.3542 52.1433 74.8897 51.022 74.063 50.1953C73.2363 49.3686 72.115 48.9041 70.9458 48.9041H66.5375ZM53.3125 24.6583H51.1083V22.4541C51.1083 21.285 50.6439 20.1637 49.8172 19.337C48.9904 18.5103 47.8692 18.0458 46.7 18.0458C45.5308 18.0458 44.4096 18.5103 43.5828 19.337C42.7561 20.1637 42.2917 21.285 42.2917 22.4541V24.6583H40.0875C38.9183 24.6583 37.7971 25.1228 36.9703 25.9495C36.1436 26.7762 35.6792 27.8975 35.6792 29.0666C35.6792 30.2358 36.1436 31.3571 36.9703 32.1838C37.7971 33.0105 38.9183 33.475 40.0875 33.475H42.2917V35.6791C42.2917 36.8483 42.7561 37.9696 43.5828 38.7963C44.4096 39.623 45.5308 40.0875 46.7 40.0875C47.8692 40.0875 48.9904 39.623 49.8172 38.7963C50.6439 37.9696 51.1083 36.8483 51.1083 35.6791V33.475H53.3125C54.4817 33.475 55.6029 33.0105 56.4297 32.1838C57.2564 31.3571 57.7208 30.2358 57.7208 29.0666C57.7208 27.8975 57.2564 26.7762 56.4297 25.9495C55.6029 25.1228 54.4817 24.6583 53.3125 24.6583ZM70.9458 66.5375H66.5375C65.3683 66.5375 64.2471 67.0019 63.4203 67.8286C62.5936 68.6554 62.1292 69.7766 62.1292 70.9458C62.1292 72.115 62.5936 73.2363 63.4203 74.063C64.2471 74.8897 65.3683 75.3541 66.5375 75.3541H70.9458C72.115 75.3541 73.2363 74.8897 74.063 74.063C74.8897 73.2363 75.3542 72.115 75.3542 70.9458C75.3542 69.7766 74.8897 68.6554 74.063 67.8286C73.2363 67.0019 72.115 66.5375 70.9458 66.5375Z" fill="#FDD3CF"/>
</svg>
