<svg width="321" height="106" viewBox="0 0 321 106" fill="none" xmlns="http://www.w3.org/2000/svg">
<path d="M64.323 96.422C63.685 96.422 63.1973 96.6603 62.86 97.137C62.5227 97.6137 62.354 98.2663 62.354 99.095C62.354 99.931 62.508 100.58 62.816 101.042C63.1313 101.497 63.6337 101.724 64.323 101.724C64.6457 101.724 64.9647 101.687 65.28 101.614C65.6027 101.541 65.951 101.438 66.325 101.306V102.703C65.9803 102.842 65.6393 102.945 65.302 103.011C64.9647 103.077 64.587 103.11 64.169 103.11C63.3623 103.11 62.695 102.945 62.167 102.615C61.6463 102.278 61.2613 101.808 61.012 101.207C60.7627 100.598 60.638 99.8907 60.638 99.084C60.638 98.292 60.781 97.5917 61.067 96.983C61.353 96.3743 61.7673 95.8977 62.31 95.553C62.86 95.2083 63.531 95.036 64.323 95.036C64.7117 95.036 65.1003 95.0873 65.489 95.19C65.885 95.2853 66.2627 95.4173 66.622 95.586L66.083 96.939C65.7897 96.7997 65.4927 96.6787 65.192 96.576C64.8987 96.4733 64.609 96.422 64.323 96.422ZM71.0189 103H69.3579V96.532H67.2239V95.146H73.1529V96.532H71.0189V103ZM81.2772 99.062C81.2772 99.876 81.1415 100.587 80.8702 101.196C80.6062 101.797 80.1992 102.267 79.6492 102.604C79.0992 102.941 78.3952 103.11 77.5372 103.11C76.6865 103.11 75.9825 102.941 75.4252 102.604C74.8752 102.267 74.4645 101.794 74.1932 101.185C73.9292 100.576 73.7972 99.865 73.7972 99.051C73.7972 98.237 73.9292 97.5293 74.1932 96.928C74.4645 96.3267 74.8752 95.861 75.4252 95.531C75.9825 95.1937 76.6902 95.025 77.5482 95.025C78.3988 95.025 79.0992 95.1937 79.6492 95.531C80.1992 95.861 80.6062 96.3303 80.8702 96.939C81.1415 97.5403 81.2772 98.248 81.2772 99.062ZM75.5462 99.062C75.5462 99.8833 75.7038 100.532 76.0192 101.009C76.3345 101.478 76.8405 101.713 77.5372 101.713C78.2485 101.713 78.7582 101.478 79.0662 101.009C79.3742 100.532 79.5282 99.8833 79.5282 99.062C79.5282 98.2333 79.3742 97.5843 79.0662 97.115C78.7582 96.6457 78.2522 96.411 77.5482 96.411C76.8442 96.411 76.3345 96.6457 76.0192 97.115C75.7038 97.5843 75.5462 98.2333 75.5462 99.062ZM86.2261 103L84.3341 96.84H84.2901C84.2974 96.9867 84.3084 97.2067 84.3231 97.5C84.3377 97.7933 84.3524 98.1087 84.3671 98.446C84.3817 98.776 84.3891 99.0767 84.3891 99.348V103H82.9041V95.146H85.1701L87.0291 101.152H87.0621L89.0311 95.146H91.2971V103H89.7461V99.282C89.7461 99.0327 89.7497 98.7467 89.7571 98.424C89.7717 98.1013 89.7827 97.797 89.7901 97.511C89.8047 97.2177 89.8157 96.9977 89.8231 96.851H89.7791L87.7551 103H86.2261ZM98.088 103L97.516 101.13H94.656L94.084 103H92.291L95.063 95.113H97.098L99.881 103H98.088ZM96.548 97.907C96.5113 97.7823 96.4637 97.6247 96.405 97.434C96.3463 97.2433 96.2877 97.049 96.229 96.851C96.1703 96.653 96.1227 96.4807 96.086 96.334C96.0493 96.4807 95.998 96.664 95.932 96.884C95.8733 97.0967 95.8147 97.302 95.756 97.5C95.7047 97.6907 95.6643 97.8263 95.635 97.907L95.074 99.733H97.12L96.548 97.907ZM103.127 103H101.466V96.532H99.3323V95.146H105.261V96.532H103.127V103ZM113.386 99.062C113.386 99.876 113.25 100.587 112.979 101.196C112.715 101.797 112.308 102.267 111.758 102.604C111.208 102.941 110.504 103.11 109.646 103.11C108.795 103.11 108.091 102.941 107.534 102.604C106.984 102.267 106.573 101.794 106.302 101.185C106.038 100.576 105.906 99.865 105.906 99.051C105.906 98.237 106.038 97.5293 106.302 96.928C106.573 96.3267 106.984 95.861 107.534 95.531C108.091 95.1937 108.799 95.025 109.657 95.025C110.507 95.025 111.208 95.1937 111.758 95.531C112.308 95.861 112.715 96.3303 112.979 96.939C113.25 97.5403 113.386 98.248 113.386 99.062ZM107.655 99.062C107.655 99.8833 107.812 100.532 108.128 101.009C108.443 101.478 108.949 101.713 109.646 101.713C110.357 101.713 110.867 101.478 111.175 101.009C111.483 100.532 111.637 99.8833 111.637 99.062C111.637 98.2333 111.483 97.5843 111.175 97.115C110.867 96.6457 110.361 96.411 109.657 96.411C108.953 96.411 108.443 96.6457 108.128 97.115C107.812 97.5843 107.655 98.2333 107.655 99.062ZM121.013 103H119.352V96.532H117.427C117.383 96.8693 117.335 97.236 117.284 97.632C117.24 98.028 117.188 98.4313 117.13 98.842C117.078 99.2453 117.023 99.6303 116.965 99.997C116.906 100.356 116.847 100.675 116.789 100.954C116.693 101.409 116.565 101.797 116.404 102.12C116.25 102.443 116.033 102.688 115.755 102.857C115.483 103.026 115.128 103.11 114.688 103.11C114.402 103.11 114.138 103.07 113.896 102.989V101.625C113.991 101.654 114.083 101.68 114.171 101.702C114.266 101.724 114.369 101.735 114.479 101.735C114.691 101.735 114.853 101.625 114.963 101.405C115.08 101.178 115.197 100.756 115.315 100.14C115.359 99.9053 115.421 99.5387 115.502 99.04C115.582 98.5413 115.67 97.9583 115.766 97.291C115.868 96.6163 115.964 95.9013 116.052 95.146H121.013V103ZM130.122 99.062C130.122 99.876 129.986 100.587 129.715 101.196C129.451 101.797 129.044 102.267 128.494 102.604C127.944 102.941 127.24 103.11 126.382 103.11C125.531 103.11 124.827 102.941 124.27 102.604C123.72 102.267 123.309 101.794 123.038 101.185C122.774 100.576 122.642 99.865 122.642 99.051C122.642 98.237 122.774 97.5293 123.038 96.928C123.309 96.3267 123.72 95.861 124.27 95.531C124.827 95.1937 125.535 95.025 126.393 95.025C127.244 95.025 127.944 95.1937 128.494 95.531C129.044 95.861 129.451 96.3303 129.715 96.939C129.986 97.5403 130.122 98.248 130.122 99.062ZM124.391 99.062C124.391 99.8833 124.549 100.532 124.864 101.009C125.179 101.478 125.685 101.713 126.382 101.713C127.093 101.713 127.603 101.478 127.911 101.009C128.219 100.532 128.373 99.8833 128.373 99.062C128.373 98.2333 128.219 97.5843 127.911 97.115C127.603 96.6457 127.097 96.411 126.393 96.411C125.689 96.411 125.179 96.6457 124.864 97.115C124.549 97.5843 124.391 98.2333 124.391 99.062ZM136.71 95.146V96.521H133.41V103H131.749V95.146H136.71ZM142.774 95.146C143.822 95.146 144.614 95.2927 145.15 95.586C145.685 95.8793 145.953 96.3963 145.953 97.137C145.953 97.5843 145.846 97.962 145.634 98.27C145.428 98.578 145.131 98.765 144.743 98.831V98.886C145.007 98.9373 145.245 99.029 145.458 99.161C145.67 99.293 145.839 99.4837 145.964 99.733C146.088 99.9823 146.151 100.312 146.151 100.723C146.151 101.434 145.894 101.992 145.381 102.395C144.867 102.798 144.163 103 143.269 103H140.332V95.146H142.774ZM142.961 98.259C143.445 98.259 143.778 98.182 143.962 98.028C144.152 97.874 144.248 97.6503 144.248 97.357C144.248 97.0563 144.138 96.84 143.918 96.708C143.698 96.576 143.349 96.51 142.873 96.51H141.993V98.259H142.961ZM141.993 99.579V101.625H143.082C143.58 101.625 143.929 101.53 144.127 101.339C144.325 101.141 144.424 100.881 144.424 100.558C144.424 100.265 144.321 100.03 144.116 99.854C143.918 99.6707 143.555 99.579 143.027 99.579H141.993ZM147.722 103V95.146H149.383V98.16H149.922C150.648 98.16 151.246 98.2627 151.715 98.468C152.185 98.6733 152.529 98.9557 152.749 99.315C152.977 99.6743 153.09 100.085 153.09 100.547C153.09 101.324 152.834 101.929 152.32 102.362C151.807 102.787 150.989 103 149.867 103H147.722ZM154.047 103V95.146H155.708V103H154.047ZM149.823 101.636C150.315 101.636 150.7 101.555 150.978 101.394C151.264 101.233 151.407 100.95 151.407 100.547C151.407 100.129 151.261 99.854 150.967 99.722C150.681 99.59 150.274 99.524 149.746 99.524H149.383V101.636H149.823ZM161.024 96.422C160.386 96.422 159.899 96.6603 159.561 97.137C159.224 97.6137 159.055 98.2663 159.055 99.095C159.055 99.931 159.209 100.58 159.517 101.042C159.833 101.497 160.335 101.724 161.024 101.724C161.347 101.724 161.666 101.687 161.981 101.614C162.304 101.541 162.652 101.438 163.026 101.306V102.703C162.682 102.842 162.341 102.945 162.003 103.011C161.666 103.077 161.288 103.11 160.87 103.11C160.064 103.11 159.396 102.945 158.868 102.615C158.348 102.278 157.963 101.808 157.713 101.207C157.464 100.598 157.339 99.8907 157.339 99.084C157.339 98.292 157.482 97.5917 157.768 96.983C158.054 96.3743 158.469 95.8977 159.011 95.553C159.561 95.2083 160.232 95.036 161.024 95.036C161.413 95.036 161.802 95.0873 162.19 95.19C162.586 95.2853 162.964 95.4173 163.323 95.586L162.784 96.939C162.491 96.7997 162.194 96.6787 161.893 96.576C161.6 96.4733 161.31 96.422 161.024 96.422ZM174.573 103H164.695V95.146H166.356V101.614H168.798V95.146H170.47V101.614H172.912V95.146H174.573V103ZM181.075 103H176.554V95.146H181.075V96.51H178.215V98.237H180.877V99.601H178.215V101.625H181.075V103ZM189.035 92.561C188.998 92.9423 188.892 93.2797 188.716 93.573C188.54 93.859 188.265 94.0827 187.891 94.244C187.517 94.4053 187.014 94.486 186.384 94.486C185.738 94.486 185.232 94.409 184.866 94.255C184.506 94.0937 184.25 93.87 184.096 93.584C183.942 93.298 183.85 92.957 183.821 92.561H185.284C185.32 92.9643 185.423 93.232 185.592 93.364C185.76 93.496 186.035 93.562 186.417 93.562C186.732 93.562 186.989 93.4923 187.187 93.353C187.392 93.2063 187.513 92.9423 187.55 92.561H189.035ZM182.71 95.146H184.206V98.941C184.206 99.1243 184.202 99.3297 184.195 99.557C184.187 99.7843 184.18 100.008 184.173 100.228C184.165 100.441 184.158 100.628 184.151 100.789C184.143 100.943 184.136 101.049 184.129 101.108H184.162L187.792 95.146H189.783V103H188.298V99.227C188.298 99.029 188.301 98.8127 188.309 98.578C188.316 98.336 188.323 98.105 188.331 97.885C188.345 97.665 188.356 97.4743 188.364 97.313C188.378 97.1443 188.389 97.0343 188.397 96.983H188.353L184.712 103H182.71V95.146ZM200.584 103H198.692L195.843 99.018V103H194.182V95.146H195.843V98.952L198.659 95.146H200.43L197.57 98.919L200.584 103ZM206.38 103L205.808 101.13H202.948L202.376 103H200.583L203.355 95.113H205.39L208.173 103H206.38ZM204.84 97.907C204.803 97.7823 204.756 97.6247 204.697 97.434C204.638 97.2433 204.58 97.049 204.521 96.851C204.462 96.653 204.415 96.4807 204.378 96.334C204.341 96.4807 204.29 96.664 204.224 96.884C204.165 97.0967 204.107 97.302 204.048 97.5C203.997 97.6907 203.956 97.8263 203.927 97.907L203.366 99.733H205.412L204.84 97.907ZM211.419 103H209.758V96.532H207.624V95.146H213.553V96.532H211.419V103ZM219.285 103H214.764V95.146H219.285V96.51H216.425V98.237H219.087V99.601H216.425V101.625H219.285V103ZM225.881 95.146V96.521H222.581V103H220.92V95.146H225.881ZM233.999 99.062C233.999 99.876 233.863 100.587 233.592 101.196C233.328 101.797 232.921 102.267 232.371 102.604C231.821 102.941 231.117 103.11 230.259 103.11C229.408 103.11 228.704 102.941 228.147 102.604C227.597 102.267 227.186 101.794 226.915 101.185C226.651 100.576 226.519 99.865 226.519 99.051C226.519 98.237 226.651 97.5293 226.915 96.928C227.186 96.3267 227.597 95.861 228.147 95.531C228.704 95.1937 229.412 95.025 230.27 95.025C231.121 95.025 231.821 95.1937 232.371 95.531C232.921 95.861 233.328 96.3303 233.592 96.939C233.863 97.5403 233.999 98.248 233.999 99.062ZM228.268 99.062C228.268 99.8833 228.426 100.532 228.741 101.009C229.056 101.478 229.562 101.713 230.259 101.713C230.97 101.713 231.48 101.478 231.788 101.009C232.096 100.532 232.25 99.8833 232.25 99.062C232.25 98.2333 232.096 97.5843 231.788 97.115C231.48 96.6457 230.974 96.411 230.27 96.411C229.566 96.411 229.056 96.6457 228.741 97.115C228.426 97.5843 228.268 98.2333 228.268 99.062ZM238.134 95.146C239.146 95.146 239.883 95.366 240.345 95.806C240.814 96.2387 241.049 96.8363 241.049 97.599C241.049 98.0537 240.953 98.4827 240.763 98.886C240.572 99.282 240.253 99.601 239.806 99.843C239.366 100.085 238.764 100.206 238.002 100.206H237.287V103H235.626V95.146H238.134ZM238.046 96.51H237.287V98.842H237.837C238.306 98.842 238.676 98.7503 238.948 98.567C239.226 98.3763 239.366 98.072 239.366 97.654C239.366 96.8913 238.926 96.51 238.046 96.51ZM242.533 95.146H244.029V98.941C244.029 99.1243 244.025 99.3297 244.018 99.557C244.011 99.7843 244.003 100.008 243.996 100.228C243.989 100.441 243.981 100.628 243.974 100.789C243.967 100.943 243.959 101.049 243.952 101.108H243.985L247.615 95.146H249.606V103H248.121V99.227C248.121 99.029 248.125 98.8127 248.132 98.578C248.139 98.336 248.147 98.105 248.154 97.885C248.169 97.665 248.18 97.4743 248.187 97.313C248.202 97.1443 248.213 97.0343 248.22 96.983H248.176L244.535 103H242.533V95.146ZM251.589 95.146H253.085V98.941C253.085 99.1243 253.081 99.3297 253.074 99.557C253.066 99.7843 253.059 100.008 253.052 100.228C253.044 100.441 253.037 100.628 253.03 100.789C253.022 100.943 253.015 101.049 253.008 101.108H253.041L256.671 95.146H258.662V103H257.177V99.227C257.177 99.029 257.18 98.8127 257.188 98.578C257.195 98.336 257.202 98.105 257.21 97.885C257.224 97.665 257.235 97.4743 257.243 97.313C257.257 97.1443 257.268 97.0343 257.276 96.983H257.232L253.591 103H251.589V95.146Z" fill="black"/>
<line class="logo__line" x1="29.5" y1="77.5" x2="292.5" y2="77.5" stroke="red" stroke-width="3" stroke-linecap="round"/>
<line class="logo__line" x1="29.5" y1="6.5" x2="98.5" y2="6.5" stroke="red" stroke-width="3" stroke-linecap="round"/>
<line class="logo__line" x1="221.5" y1="6.5" x2="290.5" y2="6.5" stroke="red" stroke-width="3" stroke-linecap="round"/>
<path d="M20.545 36.995H9.45V56H2.625V31.5H20.58L20.545 36.995ZM43.3497 50.645V56H23.6797V31.5H42.8947V36.855H30.5397V40.985H41.4247V46.165H30.5397V50.645H43.3497ZM65.1479 43.19C66.5945 43.6567 67.6912 44.38 68.4379 45.36C69.2079 46.34 69.5929 47.5533 69.5929 49C69.5929 51.17 68.7412 52.885 67.0379 54.145C65.3579 55.3817 62.9662 56 59.8629 56H47.2979V31.5H59.1979C62.1379 31.5 64.4129 32.06 66.0229 33.18C67.6562 34.2767 68.4729 35.84 68.4729 37.87C68.4729 39.06 68.1812 40.11 67.5979 41.02C67.0379 41.93 66.2212 42.6533 65.1479 43.19ZM54.1229 41.3H58.5329C60.4929 41.3 61.4729 40.495 61.4729 38.885C61.4729 37.275 60.4929 36.47 58.5329 36.47H54.1229V41.3ZM59.5829 51.03C61.5895 51.03 62.5929 50.1783 62.5929 48.475C62.5929 46.8183 61.5895 45.99 59.5829 45.99H54.1229V51.03H59.5829ZM85.3828 56.49C82.7928 56.49 80.4594 55.9417 78.3828 54.845C76.3294 53.7483 74.7078 52.2317 73.5178 50.295C72.3511 48.3583 71.7678 46.1767 71.7678 43.75C71.7678 41.3233 72.3511 39.1417 73.5178 37.205C74.7078 35.2683 76.3294 33.7517 78.3828 32.655C80.4594 31.5583 82.7928 31.01 85.3828 31.01C87.9728 31.01 90.2944 31.5583 92.3478 32.655C94.4244 33.7517 96.0461 35.2683 97.2128 37.205C98.4028 39.1417 98.9978 41.3233 98.9978 43.75C98.9978 46.1767 98.4028 48.3583 97.2128 50.295C96.0461 52.2317 94.4244 53.7483 92.3478 54.845C90.2944 55.9417 87.9728 56.49 85.3828 56.49ZM85.3828 50.75C86.6194 50.75 87.7394 50.4583 88.7428 49.875C89.7461 49.2917 90.5394 48.475 91.1228 47.425C91.7061 46.3517 91.9978 45.1267 91.9978 43.75C91.9978 42.3733 91.7061 41.16 91.1228 40.11C90.5394 39.0367 89.7461 38.2083 88.7428 37.625C87.7394 37.0417 86.6194 36.75 85.3828 36.75C84.1461 36.75 83.0261 37.0417 82.0228 37.625C81.0194 38.2083 80.2261 39.0367 79.6428 40.11C79.0594 41.16 78.7678 42.3733 78.7678 43.75C78.7678 45.1267 79.0594 46.3517 79.6428 47.425C80.2261 48.475 81.0194 49.2917 82.0228 49.875C83.0261 50.4583 84.1461 50.75 85.3828 50.75ZM113.903 31.5C116.12 31.5 118.045 31.8733 119.678 32.62C121.311 33.3433 122.571 34.3933 123.458 35.77C124.345 37.1233 124.788 38.7217 124.788 40.565C124.788 42.4083 124.345 44.0067 123.458 45.36C122.571 46.7133 121.311 47.7633 119.678 48.51C118.045 49.2333 116.12 49.595 113.903 49.595H109.633V56H102.703V31.5H113.903ZM113.483 44.135C114.906 44.135 115.98 43.8317 116.703 43.225C117.426 42.595 117.788 41.7083 117.788 40.565C117.788 39.4217 117.426 38.535 116.703 37.905C115.98 37.275 114.906 36.96 113.483 36.96H109.633V44.135H113.483ZM145.848 36.995H134.753V56H127.928V31.5H145.883L145.848 36.995ZM171.103 56.49C168.536 56.49 166.226 55.9533 164.173 54.88C162.143 53.7833 160.545 52.2667 159.378 50.33C158.211 48.3933 157.628 46.2 157.628 43.75C157.628 41.3 158.211 39.1067 159.378 37.17C160.545 35.2333 162.143 33.7283 164.173 32.655C166.226 31.5583 168.536 31.01 171.103 31.01C173.343 31.01 175.361 31.4067 177.158 32.2C178.955 32.9933 180.448 34.1367 181.638 35.63L177.228 39.62C175.641 37.7067 173.716 36.75 171.453 36.75C170.123 36.75 168.933 37.0417 167.883 37.625C166.856 38.2083 166.051 39.0367 165.468 40.11C164.908 41.16 164.628 42.3733 164.628 43.75C164.628 45.1267 164.908 46.3517 165.468 47.425C166.051 48.475 166.856 49.2917 167.883 49.875C168.933 50.4583 170.123 50.75 171.453 50.75C173.716 50.75 175.641 49.7933 177.228 47.88L181.638 51.87C180.448 53.3633 178.955 54.5067 177.158 55.3C175.361 56.0933 173.343 56.49 171.103 56.49ZM201.263 51.24H190.903L188.978 56H181.908L192.723 31.5H199.548L210.398 56H203.188L201.263 51.24ZM199.233 46.13L196.083 38.29L192.933 46.13H199.233ZM231.136 51.24H220.776L218.851 56H211.781L222.596 31.5H229.421L240.271 56H233.061L231.136 51.24ZM229.106 46.13L225.956 38.29L222.806 46.13H229.106ZM252.984 46.62H249.834V56H242.939V31.5H249.834V41.02H253.159L259.004 31.5H266.284L258.619 43.33L266.354 56H258.549L252.984 46.62ZM289.668 31.5V56H282.843V49.84H279.063L275.038 56H267.758L272.728 48.825C271.095 48.1017 269.847 47.0633 268.983 45.71C268.12 44.3333 267.688 42.7 267.688 40.81C267.688 38.8967 268.132 37.24 269.018 35.84C269.905 34.44 271.177 33.3667 272.833 32.62C274.49 31.8733 276.427 31.5 278.643 31.5H289.668ZM278.783 36.96C276.053 36.96 274.688 38.2083 274.688 40.705C274.688 41.9417 275.027 42.8867 275.703 43.54C276.403 44.17 277.407 44.485 278.713 44.485H282.843V36.96H278.783ZM318.24 31.5V56H311.31V46.445H301.86V56H294.93V31.5H301.86V40.705H311.31V31.5H318.24Z" fill="black"/>
<path d="M127.735 2.29V11.11H129.16V16.12H126.97V13H120.265V16.12H118.075V11.11H118.9C119.28 10.36 119.635 9.56 119.965 8.71C120.295 7.85 120.59 6.895 120.85 5.845C121.12 4.795 121.335 3.61 121.495 2.29H127.735ZM123.295 4.18C123.205 4.87 123.06 5.62 122.86 6.43C122.67 7.23 122.44 8.035 122.17 8.845C121.9 9.645 121.605 10.4 121.285 11.11H125.47V4.18H123.295ZM144.725 7.63C144.725 8.74 144.54 9.71 144.17 10.54C143.81 11.36 143.255 12 142.505 12.46C141.755 12.92 140.795 13.15 139.625 13.15C138.465 13.15 137.505 12.92 136.745 12.46C135.995 12 135.435 11.355 135.065 10.525C134.705 9.695 134.525 8.725 134.525 7.615C134.525 6.505 134.705 5.54 135.065 4.72C135.435 3.9 135.995 3.265 136.745 2.815C137.505 2.355 138.47 2.125 139.64 2.125C140.8 2.125 141.755 2.355 142.505 2.815C143.255 3.265 143.81 3.905 144.17 4.735C144.54 5.555 144.725 6.52 144.725 7.63ZM136.91 7.63C136.91 8.75 137.125 9.635 137.555 10.285C137.985 10.925 138.675 11.245 139.625 11.245C140.595 11.245 141.29 10.925 141.71 10.285C142.13 9.635 142.34 8.75 142.34 7.63C142.34 6.5 142.13 5.615 141.71 4.975C141.29 4.335 140.6 4.015 139.64 4.015C138.68 4.015 137.985 4.335 137.555 4.975C137.125 5.615 136.91 6.5 136.91 7.63ZM159.874 13H157.294L153.409 7.57V13H151.144V2.29H153.409V7.48L157.249 2.29H159.664L155.764 7.435L159.874 13ZM169.547 13H167.282V4.18H164.372V2.29H172.457V4.18H169.547V13ZM187.735 7.63C187.735 8.74 187.55 9.71 187.18 10.54C186.82 11.36 186.265 12 185.515 12.46C184.765 12.92 183.805 13.15 182.635 13.15C181.475 13.15 180.515 12.92 179.755 12.46C179.005 12 178.445 11.355 178.075 10.525C177.715 9.695 177.535 8.725 177.535 7.615C177.535 6.505 177.715 5.54 178.075 4.72C178.445 3.9 179.005 3.265 179.755 2.815C180.515 2.355 181.48 2.125 182.65 2.125C183.81 2.125 184.765 2.355 185.515 2.815C186.265 3.265 186.82 3.905 187.18 4.735C187.55 5.555 187.735 6.52 187.735 7.63ZM179.92 7.63C179.92 8.75 180.135 9.635 180.565 10.285C180.995 10.925 181.685 11.245 182.635 11.245C183.605 11.245 184.3 10.925 184.72 10.285C185.14 9.635 185.35 8.75 185.35 7.63C185.35 6.5 185.14 5.615 184.72 4.975C184.3 4.335 183.61 4.015 182.65 4.015C181.69 4.015 180.995 4.335 180.565 4.975C180.135 5.615 179.92 6.5 179.92 7.63ZM197.574 2.29C198.954 2.29 199.959 2.59 200.589 3.19C201.229 3.78 201.549 4.595 201.549 5.635C201.549 6.255 201.419 6.84 201.159 7.39C200.899 7.93 200.464 8.365 199.854 8.695C199.254 9.025 198.434 9.19 197.394 9.19H196.419V13H194.154V2.29H197.574ZM197.454 4.15H196.419V7.33H197.169C197.809 7.33 198.314 7.205 198.684 6.955C199.064 6.695 199.254 6.28 199.254 5.71C199.254 4.67 198.654 4.15 197.454 4.15Z" fill="black"/>
</svg>
