<svg width="80" height="99" viewBox="0 0 80 99" fill="none" xmlns="http://www.w3.org/2000/svg">
<path d="M75.1667 89.1986H52.3127C52.6118 88.3531 52.823 87.4789 52.9431 86.5901C59.4688 83.9646 65.0663 79.4576 69.0236 73.6422C72.9809 67.8269 75.1193 60.9659 75.1667 53.932C75.1795 45.064 71.8279 36.5212 65.7882 30.0279L68.5972 27.2172C69.0815 26.7343 69.4457 26.1445 69.6606 25.4952L72.7817 16.1404C73.041 15.3639 73.0789 14.5304 72.8911 13.7335C72.7033 12.9366 72.2972 12.2078 71.7183 11.6288L62.3635 2.27613C61.785 1.69652 61.0563 1.28974 60.2593 1.10152C59.4623 0.913292 58.6286 0.951081 57.8519 1.21064L48.5014 4.32962C47.8523 4.54584 47.2626 4.9107 46.7794 5.39511L18.7322 33.4444C18.3228 33.8536 17.998 34.3394 17.7764 34.8742C17.5547 35.4089 17.4407 35.9821 17.4406 36.5609C17.4406 37.1398 17.5546 37.7129 17.7762 38.2477C17.9978 38.7825 18.3226 39.2683 18.732 39.6775L12.49 45.9182C12.0806 46.3274 11.7558 46.8133 11.5342 47.3481C11.3126 47.8829 11.1985 48.4561 11.1985 49.035C11.1985 49.6139 11.3126 50.1871 11.5342 50.7219C11.7558 51.2567 12.0806 51.7426 12.49 52.1518L21.8448 61.5023C22.254 61.9118 22.7399 62.2366 23.2747 62.4582C23.8095 62.6798 24.3827 62.7938 24.9616 62.7938C25.5405 62.7938 26.1137 62.6798 26.6485 62.4582C27.1833 62.2366 27.6692 61.9118 28.0784 61.5023L34.3121 55.2687L34.3209 55.2775C34.7301 55.6869 35.216 56.0117 35.7508 56.2333C36.2856 56.4549 36.8588 56.569 37.4377 56.569C38.0166 56.569 38.5898 56.4549 39.1246 56.2333C39.6594 56.0117 40.1453 55.6869 40.5546 55.2775L59.552 36.2684C63.9354 41.1063 66.359 47.4037 66.35 53.932C66.3226 58.9516 64.8787 63.8615 62.1844 68.0968C59.4901 72.3321 55.6549 75.7208 51.12 77.873C49.9356 75.9238 48.2637 74.317 46.269 73.2111C44.2744 72.1052 42.0259 71.5383 39.7453 71.5663C37.4647 71.5943 35.2308 72.2163 33.264 73.371C31.2971 74.5256 29.6652 76.173 28.5291 78.1507C26.8135 77.4882 25.1623 76.6696 23.5962 75.7054C24.4833 75.4331 25.2604 74.8847 25.8142 74.14C26.3679 73.3953 26.6695 72.4933 26.675 71.5653C26.6752 70.9863 26.5612 70.413 26.3397 69.8781C26.1183 69.3432 25.7936 68.8572 25.3842 68.4478C24.9748 68.0384 24.4888 67.7137 23.9538 67.4922C23.4189 67.2707 22.8456 67.1568 22.2667 67.157H4.63334C3.46418 67.157 2.3429 67.6214 1.51618 68.4481C0.689454 69.2749 0.225006 70.3961 0.225006 71.5653C0.225006 72.7345 0.689454 73.8557 1.51618 74.6825C2.3429 75.5092 3.46418 75.9736 4.63334 75.9736H10.5027C14.9379 80.9526 20.5798 84.7064 26.8857 86.8738C27.0143 87.6657 27.2158 88.444 27.4876 89.1988H4.63334C3.46418 89.1988 2.3429 89.6632 1.51618 90.4899C0.689454 91.3167 0.225006 92.4379 0.225006 93.6071C0.225006 94.7763 0.689454 95.8975 1.51618 96.7243C2.3429 97.551 3.46418 98.0154 4.63334 98.0154H75.1667C76.3358 98.0154 77.4571 97.551 78.2838 96.7243C79.1106 95.8975 79.575 94.7763 79.575 93.6071C79.575 92.4379 79.1106 91.3167 78.2838 90.4899C77.4571 89.6632 76.3358 89.1988 75.1667 89.1988V89.1986ZM24.9616 52.1518L21.8405 49.0351L24.9616 45.9162L28.0783 49.0351L24.9616 52.1518ZM61.6274 21.7197L37.4376 45.9248L28.0828 36.5615L52.2769 12.3652L58.0586 10.4365L63.5561 15.9362L61.6274 21.7197ZM39.9 89.1986C39.0281 89.1986 38.1758 88.9401 37.4509 88.4557C36.7259 87.9713 36.1609 87.2828 35.8272 86.4773C35.4936 85.6718 35.4063 84.7854 35.5764 83.9303C35.7465 83.0751 36.1663 82.2897 36.7828 81.6731C37.3994 81.0566 38.1848 80.6368 39.04 80.4667C39.8951 80.2966 40.7815 80.3839 41.587 80.7175C42.3925 81.0512 43.081 81.6162 43.5654 82.3412C44.0498 83.0661 44.3083 83.9184 44.3083 84.7903C44.3072 85.9591 43.8424 87.0797 43.0159 87.9062C42.1894 88.7326 41.0688 89.1975 39.9 89.1986Z" fill="#FDD3CF"/>
</svg>
